<svg width="40" height="40" viewBox="0 0 40 40" fill="none" xmlns="http://www.w3.org/2000/svg">
<path d="M0 20.5C0 31.8218 9.17816 41 20.5 41C31.8218 41 41 31.8218 41 20.5C41 9.17816 31.8218 0 20.5 0C9.17816 0 0 9.17816 0 20.5Z" fill="#231E1B"/>
<path fill-rule="evenodd" clip-rule="evenodd" d="M20.4687 10.496C14.8265 10.496 10.25 15.0724 10.25 20.7146C10.25 25.2284 13.1965 29.0525 17.2087 30.4317C17.7102 30.4944 17.8983 30.181 17.8983 29.9302C17.8983 29.6795 17.8983 29.0525 17.8983 28.1749C15.0772 28.8018 14.4503 26.7957 14.4503 26.7957C14.0115 25.6045 13.3219 25.2911 13.3219 25.2911C12.3815 24.6642 13.3846 24.6642 13.3846 24.6642C14.3876 24.7269 14.9518 25.7299 14.9518 25.7299C15.8922 27.2972 17.3341 26.8584 17.8983 26.6076C17.961 25.918 18.2745 25.4792 18.5252 25.2284C16.2683 24.9776 13.8861 24.0999 13.8861 20.1504C13.8861 19.022 14.2622 18.1443 14.9518 17.392C14.8891 17.2039 14.513 16.1382 15.0772 14.759C15.0772 14.759 15.9549 14.5082 17.8983 15.8247C18.7133 15.574 19.591 15.5113 20.4687 15.5113C21.3463 15.5113 22.224 15.6366 23.039 15.8247C24.9824 14.5082 25.8601 14.759 25.8601 14.759C26.4243 16.1382 26.0482 17.2039 25.9855 17.4547C26.6124 18.1443 27.0512 19.0847 27.0512 20.2131C27.0512 24.1626 24.669 24.9776 22.4121 25.2284C22.7882 25.5418 23.1017 26.1688 23.1017 27.1091C23.1017 28.4883 23.1017 29.5541 23.1017 29.9302C23.1017 30.181 23.2898 30.4944 23.7913 30.4317C27.8662 29.0525 30.75 25.2284 30.75 20.7146C30.6873 15.0724 26.1109 10.496 20.4687 10.496Z" fill="white"/>
</svg>
